<svg width="302" height="194" viewBox="0 0 302 194" fill="none" xmlns="http://www.w3.org/2000/svg">
<path d="M64.5 0H233.5L247 19H55L64.5 0Z" fill="#CFCFCF"/>
<path d="M67 10L83 34.0237H219L235 10H285L302 34.0237V161.24L263 194H39L0 160.694V34.0237L17 10H67Z" fill="url(#paint0_linear_811_8)"/>
<path d="M83.0172 110L94.8253 79.088H101.929L113.689 110H106.969L104.041 102.56H92.6652L89.7852 110H83.0172ZM93.6252 97.568H103.081L98.3292 85.136L93.6252 97.568ZM117.716 110V79.088H124.196V105.008H139.412V110H117.716ZM142.502 110V79.088H148.982V105.008H164.198V110H142.502ZM166.327 99.488V94.448H184.855V99.488H166.327ZM202.949 110.48C192.933 110.48 187.925 105.216 187.925 94.688C187.925 89.024 189.189 84.928 191.717 82.4C194.245 79.872 197.989 78.608 202.949 78.608C207.909 78.608 211.653 79.872 214.181 82.4C216.709 84.928 217.973 89.024 217.973 94.688C217.973 105.216 212.965 110.48 202.949 110.48ZM202.949 104.96C205.861 104.96 207.989 104.128 209.333 102.464C210.709 100.768 211.397 98.176 211.397 94.688C211.397 90.816 210.709 88.096 209.333 86.528C207.989 84.928 205.861 84.128 202.949 84.128C200.037 84.128 197.893 84.928 196.517 86.528C195.173 88.096 194.501 90.816 194.501 94.688C194.501 98.176 195.173 100.768 196.517 102.464C197.893 104.128 200.037 104.96 202.949 104.96Z" fill="white"/>
<defs>
<linearGradient id="paint0_linear_811_8" x1="151" y1="10" x2="151" y2="194" gradientUnits="userSpaceOnUse">
<stop offset="0.4" stop-color="#77ADFF"/>
<stop offset="0.945" stop-color="#818DFF"/>
</linearGradient>
</defs>
</svg>
